<svg width="155" height="26" viewBox="0 0 155 26" fill="none" xmlns="http://www.w3.org/2000/svg">
<path d="M0 12.5958C0 11.5874 0.155883 10.6486 0.46765 9.77933C0.779416 8.89267 1.21242 8.12771 1.76668 7.48445C2.33825 6.84118 3.01374 6.33701 3.79316 5.97191C4.58989 5.60682 5.45591 5.42427 6.39121 5.42427C7.17063 5.42427 7.8721 5.56335 8.49563 5.84152C9.13649 6.1023 9.69074 6.43263 10.1584 6.83249V5.73721H12.2888V16.012C12.2888 16.6727 12.4447 17.1073 12.7564 17.3159C13.0855 17.5072 13.4406 17.6028 13.8216 17.6028L13.328 19.4283C11.6653 19.4283 10.6607 18.7502 10.3143 17.3942C10.1064 17.6723 9.86394 17.9505 9.58682 18.2287C9.32701 18.4895 9.0239 18.7242 8.6775 18.9328C8.33109 19.1414 7.94138 19.3066 7.50837 19.4283C7.07536 19.55 6.59906 19.6108 6.07945 19.6108C5.23075 19.6108 4.43401 19.4457 3.68924 19.1153C2.96178 18.785 2.32093 18.3156 1.76668 17.7071C1.22975 17.0986 0.796736 16.3684 0.46765 15.5165C0.155883 14.6473 0 13.6737 0 12.5958ZM6.59906 17.5246C7.25723 17.5246 7.88076 17.3681 8.46965 17.0552C9.05855 16.7422 9.55218 16.3337 9.95054 15.8295V8.55365C9.48289 8.22333 8.96328 7.96255 8.39171 7.77131C7.83746 7.56268 7.24857 7.45837 6.62504 7.45837C6.0015 7.45837 5.42993 7.58007 4.91032 7.82346C4.39071 8.06686 3.94038 8.41457 3.55933 8.86659C3.19561 9.30123 2.90982 9.83149 2.70198 10.4574C2.49413 11.0832 2.39021 11.77 2.39021 12.5175C2.39021 13.2477 2.49413 13.9258 2.70198 14.5516C2.90982 15.1601 3.20427 15.6904 3.58531 16.1424C3.96636 16.5771 4.40803 16.9161 4.91032 17.1595C5.42993 17.4029 5.99284 17.5246 6.59906 17.5246Z" transform="translate(0.324707 0.325928)" fill="#2F3B65"/>
<path d="M19.1525 14.8124C19.1525 15.7512 19.343 16.4467 19.7241 16.8987C20.1225 17.3507 20.6681 17.5767 21.3609 17.5767C21.69 17.5767 22.0104 17.5419 22.3221 17.4724C22.6339 17.3855 22.911 17.2899 23.1535 17.1855L23.7251 19.0893C23.4133 19.2283 23.0236 19.35 22.556 19.4543C22.1056 19.5587 21.6034 19.6108 21.0491 19.6108C20.4429 19.6108 19.88 19.5239 19.3604 19.35C18.8581 19.1762 18.4164 18.9067 18.0354 18.5416C17.6543 18.1765 17.3512 17.7071 17.126 17.1334C16.9182 16.5597 16.8143 15.8642 16.8143 15.0471V0H19.1525V14.8124Z" transform="translate(0.324707 0.325928)" fill="#2F3B65"/>
<path d="M26.2044 1.95587H27.9971V6.23269H31.7383V8.26679H27.9971V14.8124C27.9971 15.3166 28.049 15.7425 28.153 16.0903C28.2742 16.438 28.4301 16.7161 28.6206 16.9248C28.8111 17.1334 29.0363 17.2899 29.2961 17.3942C29.5732 17.4811 29.859 17.5246 30.1535 17.5246C30.5865 17.5246 30.9935 17.455 31.3745 17.3159C31.7556 17.1768 32.1193 17.0117 32.4657 16.8204L33.1152 18.6981C32.7688 18.9067 32.3012 19.1066 31.7123 19.2979C31.1234 19.5065 30.5085 19.6108 29.8677 19.6108C28.5686 19.6108 27.5381 19.1849 26.776 18.333C26.0312 17.4811 25.6588 16.2467 25.6588 14.6299V8.26679H23.3206V6.23269H25.7108L26.2044 1.95587Z" transform="translate(0.324707 0.325928)" fill="#2F3B65"/>
<path fill-rule="evenodd" clip-rule="evenodd" d="M13.6528 19.7542C12.1518 19.7542 11.1872 19.2018 10.7589 18.0968C10.7127 17.9777 10.6727 17.8521 10.639 17.7201C10.5613 17.8242 10.4787 17.9282 10.3913 18.0323C10.245 18.2064 10.0851 18.3805 9.91157 18.5546C9.65177 18.8154 9.34866 19.0501 9.00226 19.2588C8.65585 19.4674 8.26614 19.6325 7.83313 19.7542C7.40012 19.8759 6.92381 19.9368 6.4042 19.9368C5.5555 19.9368 4.75877 19.7716 4.01399 19.4413C3.28654 19.111 2.64568 18.6416 2.09143 18.0331C1.5545 17.4246 1.12149 16.6944 0.792406 15.8425C0.48064 14.9732 0.324757 13.9997 0.324757 12.9218C0.324757 11.9134 0.48064 10.9746 0.792406 10.1053C1.10417 9.21865 1.53718 8.45369 2.09143 7.81042C2.663 7.16716 3.3385 6.66298 4.11791 6.29789C4.91465 5.93279 5.78067 5.75025 6.71597 5.75025C7.49538 5.75025 8.19686 5.88933 8.82039 6.1675C9.31877 6.3703 9.76476 6.61516 10.1584 6.90208C10.2709 6.9841 10.3792 7.06957 10.4831 7.15847V6.06319H12.6136V16.338C12.6136 16.9986 12.7694 17.4333 13.0812 17.6419C13.3134 17.7769 13.5585 17.8642 13.8166 17.9039C13.9243 17.9205 14.0342 17.9288 14.1464 17.9288L13.6528 19.7542ZM13.2537 17.3655C13.5305 17.5241 13.8262 17.6028 14.1464 17.6028H14.5711L13.9011 20.0802H13.6528C12.7802 20.0802 12.0435 19.9026 11.4711 19.5162C11.0517 19.2332 10.7375 18.8495 10.524 18.3768C10.404 18.5134 10.2764 18.6495 10.1412 18.7852C9.86087 19.0665 9.53628 19.3173 9.16934 19.5383C8.79545 19.7635 8.37851 19.9395 7.9207 20.0681C7.45516 20.199 6.94892 20.2628 6.4042 20.2628C5.51226 20.2628 4.67061 20.0889 3.88274 19.7395L3.88013 19.7383C3.11141 19.3892 2.43484 18.8932 1.85175 18.253L1.84829 18.2492C1.28285 17.6084 0.830916 16.8439 0.489616 15.9604L0.486756 15.953C0.160366 15.0429 0 14.0311 0 12.9218C0 11.8796 0.16115 10.9034 0.486492 9.99588C0.810316 9.07526 1.26253 8.27412 1.8458 7.59719L1.84904 7.59342C2.45001 6.91708 3.16128 6.38627 3.98058 6.00249L3.98304 6.00134C4.82494 5.61555 5.73735 5.42427 6.71597 5.42427C7.53237 5.42427 8.27805 5.56975 8.94734 5.86741C9.38786 6.04703 9.79191 6.25931 10.1584 6.50492V5.73721H12.9383V16.338C12.9383 16.9616 13.0867 17.2482 13.2537 17.3655ZM8.60244 8.40251C8.08657 8.20833 7.53649 8.11032 6.94979 8.11032C6.36951 8.11032 5.84536 8.2233 5.37241 8.44484C4.89674 8.66765 4.48391 8.98579 4.13237 9.4027C3.79905 9.80114 3.53172 10.2935 3.33482 10.8864C3.13938 11.475 3.03972 12.1264 3.03972 12.8435C3.03972 13.5419 3.13898 14.1843 3.33439 14.7732C3.52986 15.345 3.8044 15.8377 4.15594 16.2554C4.50833 16.6568 4.91408 16.9676 5.37422 17.1909C5.84789 17.4124 6.36299 17.5246 6.92381 17.5246C7.52834 17.5246 8.09978 17.3814 8.64246 17.093C9.15883 16.8186 9.59385 16.4675 9.95055 16.0395V9.05203C9.54615 8.7849 9.10096 8.56954 8.61377 8.40654L8.60244 8.40251ZM10.2753 8.87963V16.1555C9.87693 16.6596 9.3833 17.0682 8.79441 17.3811C8.20552 17.6941 7.58199 17.8505 6.92381 17.8505C6.3176 17.8505 5.75469 17.7288 5.23508 17.4854C4.73279 17.242 4.29112 16.903 3.91007 16.4684C3.52902 16.0164 3.23458 15.4861 3.02673 14.8776C2.81889 14.2517 2.71497 13.5737 2.71497 12.8435C2.71497 12.0959 2.81889 11.4092 3.02673 10.7833C3.23458 10.1575 3.52036 9.62721 3.88409 9.19257C4.26514 8.74055 4.71547 8.39284 5.23508 8.14944C5.75469 7.90605 6.32626 7.78435 6.94979 7.78435C7.57333 7.78435 8.16222 7.88866 8.71647 8.09729C9.28804 8.28853 9.80765 8.54931 10.2753 8.87963ZM24.0499 19.4152C23.7381 19.5543 23.3484 19.676 22.8807 19.7803C22.4304 19.8846 21.9281 19.9368 21.3739 19.9368C20.7676 19.9368 20.2047 19.8499 19.6851 19.676C19.1828 19.5022 18.7412 19.2327 18.3601 18.8676C17.9791 18.5025 17.676 18.0331 17.4508 17.4594C17.243 16.8856 17.139 16.1902 17.139 15.3731V0.325978H19.4773V15.1384C19.4773 16.0772 19.6678 16.7726 20.0489 17.2247C20.4472 17.6767 20.9928 17.9027 21.6856 17.9027C22.0147 17.9027 22.3351 17.8679 22.6469 17.7984C22.8356 17.7458 23.0116 17.69 23.175 17.631C23.2815 17.5925 23.3826 17.5527 23.4783 17.5115L24.0499 19.4152ZM22.5683 17.482C22.8656 17.3988 23.1259 17.3085 23.3504 17.2119L23.6844 17.0682L24.4434 19.5964L24.1818 19.7131C23.8444 19.8636 23.433 19.991 22.9526 20.0982C22.4745 20.2089 21.9475 20.2628 21.3739 20.2628C20.7364 20.2628 20.1385 20.1713 19.5824 19.9853L19.5793 19.9842C19.0332 19.7952 18.551 19.5012 18.1359 19.1034C17.7156 18.7007 17.3882 18.1893 17.1486 17.5788L17.1455 17.5708C16.9212 16.9516 16.8143 16.2162 16.8143 15.3731V0H19.802V15.1384C19.802 16.0405 19.9863 16.6439 20.2945 17.0114C20.6213 17.3807 21.0717 17.5767 21.6856 17.5767C21.9888 17.5767 22.2829 17.545 22.5683 17.482ZM26.2399 1.95587H28.6466V6.23269H32.3878V8.91875H28.6466V15.1384C28.6466 15.6186 28.6959 16.0085 28.7867 16.3156C28.8971 16.63 29.0326 16.8639 29.1848 17.0305C29.3398 17.2002 29.5207 17.3269 29.73 17.4128C29.9715 17.4872 30.2205 17.5246 30.4782 17.5246C30.876 17.5246 31.2452 17.4608 31.5883 17.3356C31.9541 17.2021 32.3026 17.0438 32.634 16.8608L32.9711 16.6747L33.8333 19.1673L33.6071 19.3036C33.2323 19.5293 32.7406 19.7378 32.1411 19.9327C31.5178 20.153 30.8677 20.2628 30.1924 20.2628C28.8154 20.2628 27.6917 19.8074 26.8591 18.8768L26.8566 18.874C26.0415 17.9416 25.6588 16.6185 25.6588 14.9559V8.91875H23.3206V6.23269H25.7462L26.2399 1.95587ZM26.0355 6.55867H23.6453V8.59277H25.9836V14.9559C25.9836 16.5727 26.356 17.8071 27.1007 18.659C27.8628 19.5109 28.8934 19.9368 30.1924 19.9368C30.8333 19.9368 31.4482 19.8325 32.037 19.6239C32.6259 19.4326 33.0936 19.2327 33.44 19.0241L32.7905 17.1464C32.6948 17.1992 32.5978 17.2501 32.4995 17.2989C32.2418 17.4269 31.9751 17.5412 31.6993 17.6419C31.3183 17.781 30.9112 17.8505 30.4782 17.8505C30.1838 17.8505 29.898 17.8071 29.6209 17.7201C29.361 17.6158 29.1359 17.4594 28.9454 17.2507C28.7548 17.0421 28.599 16.7639 28.4777 16.4162C28.3738 16.0685 28.3218 15.6426 28.3218 15.1384V8.59277H32.063V6.55867H28.3218V2.28184H26.5292L26.0355 6.55867Z" fill="#2F3B65"/>
<path d="M2.26031 6.05015C2.74528 5.31996 3.35149 4.71146 4.07894 4.22467C4.82372 3.72049 5.68108 3.4684 6.65102 3.4684C7.72488 3.4684 8.59956 3.72918 9.27505 4.25075C9.95055 4.75493 10.4355 5.45035 10.73 6.33701C11.2669 5.53727 11.8991 4.85924 12.6265 4.30291C13.3713 3.74657 14.2893 3.4684 15.3805 3.4684C16.1079 3.4684 16.7401 3.5901 17.2771 3.8335C17.8313 4.07689 18.2903 4.4246 18.654 4.87663C19.0177 5.31126 19.2862 5.84152 19.4594 6.4674C19.6499 7.07589 19.7452 7.75392 19.7452 8.5015V17.342H17.407V8.68405C17.407 7.74523 17.1905 6.98896 16.7574 6.41524C16.3244 5.82413 15.7269 5.52858 14.9648 5.52858C14.5664 5.52858 14.1854 5.60682 13.8216 5.76328C13.4579 5.91975 13.1115 6.13707 12.7824 6.41524C12.4533 6.67602 12.1416 6.98896 11.8471 7.35406C11.5527 7.70177 11.2842 8.06686 11.0417 8.44934V17.342H8.70348V8.68405C8.70348 7.74523 8.48697 6.98896 8.05397 6.41524C7.62096 5.82413 7.02341 5.52858 6.26131 5.52858C5.88026 5.52858 5.50787 5.60682 5.14415 5.76328C4.78042 5.90237 4.42535 6.1023 4.07894 6.36308C3.74986 6.62387 3.43809 6.92811 3.14364 7.27582C2.8492 7.62353 2.58073 7.98863 2.33825 8.37111V17.342H0V3.78134H2.26031V6.05015Z" transform="translate(81.7739 2.28198)" fill="#2F3B65"/>
<path d="M25.2541 11.5266C25.41 12.7957 25.8516 13.7867 26.5791 14.4995C27.3066 15.2123 28.2678 15.5687 29.4629 15.5687C30.2424 15.5687 30.9438 15.4905 31.5674 15.334C32.1909 15.1601 32.7884 14.9428 33.36 14.682L33.9056 16.6901C33.2821 16.9856 32.5806 17.2203 31.8012 17.3942C31.0218 17.568 30.1471 17.6549 29.1772 17.6549C28.2072 17.6549 27.3325 17.4985 26.5531 17.1855C25.7737 16.8552 25.1069 16.3945 24.5526 15.8034C24.0157 15.1949 23.6 14.456 23.3056 13.5867C23.0111 12.7001 22.8639 11.6917 22.8639 10.5617C22.8639 9.55332 23.0111 8.6145 23.3056 7.74523C23.6 6.87596 24.0157 6.12838 24.5526 5.5025C25.0896 4.85924 25.7304 4.36375 26.4752 4.01605C27.22 3.65095 28.0513 3.4684 28.9693 3.4684C29.9393 3.4684 30.7879 3.63356 31.5154 3.96389C32.2429 4.29421 32.8491 4.74623 33.334 5.31995C33.819 5.89368 34.1827 6.56302 34.4252 7.32798C34.6677 8.09294 34.789 8.90136 34.789 9.75325C34.789 10.3617 34.763 10.9528 34.711 11.5266H25.2541ZM28.9173 5.5025C27.8954 5.5025 27.0554 5.85021 26.3972 6.54563C25.7564 7.24105 25.3667 8.26679 25.2281 9.62286H32.6326C32.6326 8.30156 32.3035 7.28451 31.6453 6.57171C30.9871 5.8589 30.0778 5.5025 28.9173 5.5025Z" transform="translate(81.7739 2.28198)" fill="#2F3B65"/>
<path d="M40.1655 6.05015C40.6505 5.31996 41.2653 4.71146 42.0101 4.22467C42.7722 3.72049 43.6729 3.4684 44.7121 3.4684C46.2363 3.4684 47.3708 3.92912 48.1155 4.85055C48.8776 5.77198 49.2587 6.98896 49.2587 8.5015V17.342H46.9204V8.76228C46.9204 7.77131 46.6953 6.98896 46.2449 6.41524C45.7946 5.82413 45.1538 5.52858 44.3224 5.52858C43.924 5.52858 43.5343 5.60682 43.1533 5.76328C42.7722 5.90237 42.3998 6.1023 42.0361 6.36308C41.6897 6.62387 41.3606 6.92811 41.0488 7.27582C40.7544 7.62353 40.4859 7.98863 40.2434 8.37111V17.342H37.9052V3.78134H40.1655V6.05015Z" transform="translate(81.7739 2.28198)" fill="#2F3B65"/>
<path d="M54.3456 0H56.1383V4.27683H59.8795V6.31093H56.1383V12.8566C56.1383 13.3607 56.1902 13.7867 56.2941 14.1344C56.4154 14.4821 56.5713 14.7603 56.7618 14.9689C56.9523 15.1775 57.1775 15.334 57.4373 15.4383C57.7144 15.5252 58.0002 15.5687 58.2946 15.5687C58.7276 15.5687 59.1347 15.4992 59.5157 15.3601C59.8968 15.221 60.2605 15.0558 60.6069 14.8646L61.2564 16.7422C60.91 16.9508 60.4424 17.1508 59.8535 17.342C59.2646 17.5506 58.6497 17.6549 58.0089 17.6549C56.7098 17.6549 55.6793 17.229 54.9172 16.3771C54.1724 15.5252 53.8 14.2909 53.8 12.674V6.31093H51.4618V4.27683H53.852L54.3456 0Z" transform="translate(81.7739 2.28198)" fill="#2F3B65"/>
<path d="M63.6785 14.2909C64.1288 14.6907 64.6917 15.0124 65.3672 15.2558C66.06 15.4992 66.7962 15.6208 67.5756 15.6208C68.5455 15.6208 69.273 15.4644 69.7579 15.1514C70.2602 14.8211 70.5114 14.4039 70.5114 13.8997C70.5114 13.6389 70.4594 13.3955 70.3555 13.1695C70.2689 12.9435 70.0957 12.7262 69.8359 12.5175C69.5934 12.3089 69.2556 12.109 68.8226 11.9177C68.3896 11.7091 67.8267 11.4831 67.1339 11.2397C65.8522 10.8051 64.8996 10.2922 64.276 9.70109C63.6525 9.0926 63.3408 8.2581 63.3408 7.19759C63.3408 6.67602 63.4533 6.18923 63.6785 5.73721C63.921 5.28518 64.2587 4.89401 64.6917 4.56369C65.1421 4.21598 65.679 3.9465 66.3025 3.75526C66.9434 3.56402 67.6708 3.4684 68.4849 3.4684C69.3682 3.4684 70.139 3.56402 70.7972 3.75526C71.4727 3.92912 72.0789 4.15513 72.6158 4.4333L71.9663 6.36308C71.4986 6.08492 70.9617 5.85891 70.3555 5.68505C69.7666 5.5112 69.1084 5.42427 68.381 5.42427C67.4803 5.42427 66.7962 5.60682 66.3285 5.97191C65.8609 6.33701 65.627 6.73687 65.627 7.17151C65.627 7.38014 65.6617 7.57137 65.731 7.74523C65.8176 7.91908 65.9648 8.08424 66.1726 8.24071C66.3805 8.39718 66.6576 8.55365 67.004 8.71012C67.3504 8.86659 67.7834 9.03175 68.303 9.20561C69.1517 9.50116 69.8705 9.80541 70.4594 10.1183C71.0483 10.4139 71.5246 10.7442 71.8883 11.1093C72.2521 11.4744 72.5119 11.8743 72.6678 12.3089C72.8236 12.7262 72.9016 13.1956 72.9016 13.7171C72.9016 14.3256 72.7717 14.8733 72.5119 15.3601C72.2521 15.8469 71.8883 16.2641 71.4207 16.6118C70.953 16.9421 70.3815 17.1942 69.706 17.3681C69.0478 17.5593 68.3117 17.6549 67.4976 17.6549C66.4584 17.6549 65.5318 17.5246 64.7177 17.2638C63.9037 17.003 63.2282 16.664 62.6912 16.2467L63.6785 14.2909Z" transform="translate(81.7739 2.28198)" fill="#2F3B65"/>
<path fill-rule="evenodd" clip-rule="evenodd" d="M12.7574 4.36737C13.5676 3.76217 14.5569 3.4684 15.7052 3.4684C16.4675 3.4684 17.1465 3.59577 17.7337 3.8616C18.3317 4.12451 18.8322 4.50247 19.2295 4.99536C19.625 5.46879 19.912 6.03986 20.0956 6.70084C20.2965 7.34448 20.3947 8.05439 20.3947 8.82748V17.994H17.407V9.01002C17.407 8.12061 17.2022 7.44 16.8233 6.93806L16.8205 6.93434C16.4517 6.43088 15.9535 6.18054 15.2895 6.18054C14.9349 6.18054 14.5974 6.24992 14.2743 6.38888C13.9425 6.53165 13.6231 6.73129 13.3164 6.99056L13.3085 6.9972C13.0003 7.24141 12.7053 7.53667 12.4243 7.88514L12.4194 7.89121C12.155 8.20349 11.9122 8.53006 11.6912 8.87111V17.994H8.70348V9.01002C8.70348 8.12061 8.49869 7.44 8.11986 6.93806L8.11705 6.93434C7.74824 6.43088 7.25003 6.18054 6.58607 6.18054C6.2507 6.18054 5.92172 6.24912 5.59683 6.38888L5.58461 6.39414C5.25328 6.52083 4.92558 6.70407 4.60178 6.94742C4.29202 7.19325 3.9966 7.48138 3.71585 7.81292C3.45141 8.12519 3.20874 8.45183 2.98776 8.79288V17.994H0V3.78134H2.90982V5.42211C3.29512 4.9887 3.73295 4.60781 4.22284 4.2799C5.0254 3.73681 5.94684 3.4684 6.97577 3.4684C8.10128 3.4684 9.0504 3.74212 9.79571 4.31673C10.3747 4.74945 10.8213 5.30991 11.1376 5.9903C11.6127 5.37124 12.1517 4.83061 12.7545 4.36959L12.7574 4.36737ZM11.2836 6.33722C11.2055 6.44347 11.1292 6.55206 11.0547 6.66298C11.0123 6.53526 10.9659 6.41152 10.9156 6.29173C10.6166 5.57995 10.178 5.00828 9.59981 4.57673C8.92431 4.05516 8.04964 3.79438 6.97577 3.79438C6.00583 3.79438 5.14848 4.04647 4.4037 4.55065C3.83045 4.93425 3.33249 5.39343 2.90982 5.92817C2.79612 6.07202 2.68787 6.22134 2.58506 6.37612V4.10732H0.324757V17.668H2.66301V8.69708C2.90549 8.3146 3.17396 7.94951 3.4684 7.6018C3.76285 7.25409 4.07461 6.94984 4.4037 6.68906C4.75011 6.42828 5.10518 6.22835 5.4689 6.08926C5.83263 5.93279 6.20502 5.85456 6.58607 5.85456C7.34816 5.85456 7.94571 6.15011 8.37872 6.74122C8.81173 7.31494 9.02824 8.07121 9.02824 9.01002V17.668H11.3665V8.77532C11.609 8.39284 11.8774 8.02774 12.1719 7.68003C12.4663 7.31494 12.7781 7.002 13.1072 6.74122C13.4363 6.46305 13.7827 6.24573 14.1464 6.08926C14.5101 5.93279 14.8912 5.85456 15.2895 5.85456C16.0516 5.85456 16.6492 6.15011 17.0822 6.74122C17.5152 7.31494 17.7317 8.07121 17.7317 9.01002V17.668H20.07V8.82748C20.07 8.0799 19.9747 7.40187 19.7842 6.79337C19.611 6.1675 19.3425 5.63724 18.9788 5.2026C18.6151 4.75058 18.1561 4.40287 17.6018 4.15948C17.0649 3.91608 16.4327 3.79438 15.7052 3.79438C14.6141 3.79438 13.6961 4.07255 12.9513 4.62888C12.3247 5.10805 11.7689 5.6775 11.2836 6.33722ZM34.2304 17.016C33.6068 17.3116 32.9054 17.5463 32.1259 17.7201C31.3465 17.894 30.4719 17.9809 29.5019 17.9809C28.532 17.9809 27.6573 17.8245 26.8779 17.5115C26.0985 17.1812 25.4316 16.7205 24.8774 16.1294C24.3404 15.5209 23.9248 14.782 23.6303 13.9127C23.3359 13.0261 23.1886 12.0177 23.1886 10.8877C23.1886 9.8793 23.3359 8.94048 23.6303 8.07121C23.9248 7.20193 24.3404 6.45436 24.8774 5.82848C25.4143 5.18522 26.0552 4.68973 26.7999 4.34202C27.5447 3.97693 28.3761 3.79438 29.2941 3.79438C30.264 3.79438 31.1127 3.95954 31.8402 4.28987C32.5676 4.62019 33.1738 5.07221 33.6588 5.64593C34.1438 6.21965 34.5075 6.889 34.75 7.65396C34.9925 8.41892 35.1137 9.22734 35.1137 10.0792C35.1137 10.6877 35.0877 11.2788 35.0358 11.8525H25.5789C25.5925 11.9633 25.6082 12.072 25.6262 12.1785C25.814 13.2926 26.2399 14.1749 26.9039 14.8255C27.6313 15.5383 28.5926 15.8947 29.7877 15.8947C30.5671 15.8947 31.2686 15.8164 31.8921 15.66C32.4072 15.5164 32.9045 15.3431 33.3841 15.1402C33.4851 15.0974 33.5853 15.0534 33.6848 15.008L34.2304 17.016ZM31.8093 15.3447C32.4156 15.1755 32.9959 14.9643 33.5504 14.7113L33.8977 14.5528L34.6154 17.194L34.369 17.3108C33.7206 17.6182 32.9957 17.8601 32.1964 18.0384C31.3895 18.2183 30.4907 18.3069 29.5019 18.3069C28.497 18.3069 27.5805 18.1447 26.7573 17.8142L26.7515 17.8119C25.9324 17.4647 25.2276 16.9785 24.6409 16.3528L24.6342 16.3456C24.0652 15.7008 23.6294 14.9226 23.3228 14.0177L23.3222 14.0158C23.0147 13.0898 22.8639 12.0457 22.8639 10.8877C22.8639 9.8471 23.0159 8.87249 23.3228 7.96627C23.6289 7.06263 24.0636 6.27796 24.6299 5.61743C25.1959 4.93983 25.8733 4.41561 26.6602 4.04775C27.4532 3.65956 28.3332 3.4684 29.2941 3.4684C30.3005 3.4684 31.1965 3.6398 31.974 3.99287C32.7424 4.34176 33.3883 4.82214 33.9064 5.43503C34.421 6.04379 34.8048 6.75185 35.0594 7.55512C35.3127 8.35394 35.4385 9.19586 35.4385 10.0792C35.4385 10.697 35.4121 11.298 35.3592 11.8821L35.3323 12.1785H25.9558C26.139 13.2132 26.5365 14.0099 27.1307 14.5922C27.787 15.2352 28.6614 15.5687 29.7877 15.5687C30.5442 15.5687 31.2173 15.4929 31.8093 15.3447ZM26.9589 7.09463C26.4374 7.66139 26.0818 8.49318 25.9199 9.62286H32.6253C32.5751 8.51947 32.2657 7.69738 31.7319 7.11928C31.1472 6.48612 30.3316 6.15446 29.2421 6.15446C28.3031 6.15446 27.5509 6.46984 26.9589 7.09463ZM32.9504 9.62286C32.8998 8.45911 32.573 7.55072 31.9701 6.89769C31.3119 6.18488 30.4026 5.82848 29.2421 5.82848C28.2202 5.82848 27.3802 6.17619 26.722 6.87161C26.1335 7.51017 25.7568 8.42726 25.5919 9.62286C25.5772 9.72931 25.5642 9.83797 25.5529 9.94884H32.9573C32.9573 9.83804 32.955 9.72938 32.9504 9.62286ZM49.9082 17.994H46.9204V9.08826C46.9204 8.14455 46.7061 7.44169 46.3146 6.94296L46.3117 6.93923C45.9309 6.43936 45.3914 6.18054 44.6471 6.18054C44.2924 6.18054 43.9443 6.24998 43.601 6.39097L43.5891 6.39585C43.2394 6.52348 42.8939 6.70785 42.5527 6.95209C42.2266 7.19792 41.915 7.48571 41.6181 7.81644C41.3548 8.12765 41.1131 8.45311 40.893 8.79288V17.994H37.9052V3.78134H40.815V5.42581C41.2061 4.98977 41.6536 4.60704 42.1569 4.27797C42.979 3.73434 43.9435 3.4684 45.0369 3.4684C46.6276 3.4684 47.868 3.95195 48.6914 4.96982C49.5127 5.9636 49.9082 7.26018 49.9082 8.82748V17.994ZM42.3349 4.55065C41.7474 4.9346 41.2408 5.39427 40.815 5.92964C40.701 6.07304 40.5927 6.22186 40.4903 6.37612V4.10732H38.2299V17.668H40.5682V8.69708C40.8107 8.3146 41.0792 7.94951 41.3736 7.6018C41.6854 7.25409 42.0145 6.94984 42.3609 6.68906C42.7246 6.42828 43.097 6.22835 43.478 6.08926C43.8591 5.93279 44.2488 5.85456 44.6471 5.85456C45.4785 5.85456 46.1194 6.15011 46.5697 6.74122C47.02 7.31494 47.2452 8.09729 47.2452 9.08826V17.668H49.5834V8.82748C49.5834 7.31494 49.2024 6.09796 48.4403 5.17653C47.6955 4.2551 46.561 3.79438 45.0369 3.79438C43.9976 3.79438 43.097 4.04647 42.3349 4.55065ZM54.3811 0H56.7878V4.27683H60.529V6.96288H56.7878V13.1825C56.7878 13.6627 56.8371 14.0527 56.9279 14.3597C57.0383 14.6742 57.1738 14.908 57.3259 15.0746C57.481 15.2444 57.6618 15.371 57.8712 15.457C58.1127 15.5314 58.3617 15.5687 58.6194 15.5687C59.0171 15.5687 59.3864 15.5049 59.7295 15.3797C60.0953 15.2462 60.4437 15.0879 60.7752 14.9049L61.1123 14.7188L61.9745 17.2115L61.7483 17.3477C61.3735 17.5734 60.8818 17.7819 60.2823 17.9768C59.659 18.1971 59.0088 18.3069 58.3336 18.3069C56.9566 18.3069 55.8329 17.8515 55.0003 16.9209L54.9978 16.9181C54.1827 15.9857 53.8 14.6626 53.8 13V6.96288H51.4618V4.27683H53.8874L54.3811 0ZM54.1767 4.60281H51.7865V6.63691H54.1248V13C54.1248 14.6168 54.4972 15.8512 55.2419 16.7031C56.004 17.555 57.0346 17.9809 58.3336 17.9809C58.9745 17.9809 59.5893 17.8766 60.1782 17.668C60.7671 17.4767 61.2348 17.2768 61.5812 17.0682L60.9317 15.1906C60.836 15.2434 60.739 15.2942 60.6406 15.3431C60.383 15.4711 60.1163 15.5854 59.8405 15.686C59.4594 15.8251 59.0524 15.8947 58.6194 15.8947C58.325 15.8947 58.0392 15.8512 57.762 15.7643C57.5022 15.66 57.2771 15.5035 57.0865 15.2949C56.896 15.0862 56.7401 14.8081 56.6189 14.4604C56.515 14.1127 56.463 13.6867 56.463 13.1825V6.63691H60.2042V4.60281H56.463V0.325978H54.6704L54.1767 4.60281ZM63.9036 14.0931L64.2184 14.3727C64.6323 14.7402 65.1571 15.0425 65.8006 15.2745C66.4565 15.5048 67.1557 15.6209 67.9003 15.6209C68.8451 15.6209 69.4982 15.4667 69.9061 15.2038C70.3365 14.9204 70.5114 14.5968 70.5114 14.2257C70.5114 14.0098 70.4687 13.8132 70.3854 13.6321L70.3809 13.6224L70.3771 13.6125C70.3176 13.4571 70.1889 13.2837 69.9578 13.0981L69.9492 13.0912C69.7395 12.9108 69.433 12.726 69.0166 12.5421L69.0068 12.5378C68.589 12.3365 68.039 12.115 67.353 11.8739C66.0506 11.4321 65.0491 10.9005 64.3778 10.2641L64.3744 10.2608C63.6749 9.57811 63.3408 8.65186 63.3408 7.52357C63.3408 6.95307 63.4643 6.41616 63.7128 5.9174L63.7172 5.90857C63.9829 5.41324 64.352 4.98728 64.8192 4.63071C65.3045 4.25618 65.8773 3.9704 66.5324 3.76949L66.5347 3.76877C67.2113 3.56688 67.9708 3.4684 68.8097 3.4684C69.7131 3.4684 70.5139 3.56585 71.2074 3.76671C71.9011 3.94559 72.5291 4.17929 73.0895 4.4696L73.3376 4.59813L72.4704 7.17466L72.1255 6.9695C71.6852 6.70762 71.1747 6.49184 70.591 6.32446L70.5886 6.32377C70.0344 6.16014 69.4077 6.07622 68.7057 6.07622C67.8416 6.07622 67.2404 6.25249 66.8526 6.5552C66.433 6.88281 66.2766 7.19728 66.2766 7.49749C66.2766 7.66369 66.3031 7.80904 66.3521 7.93708C66.4112 8.04987 66.5176 8.17445 66.6922 8.30591C66.8744 8.44304 67.1284 8.58813 67.462 8.73884C67.7952 8.88931 68.2172 9.05058 68.7305 9.22234L68.7342 9.22359C69.592 9.52233 70.3259 9.83223 70.9328 10.1545C71.5431 10.4611 72.0493 10.8098 72.4427 11.2048C72.8358 11.5993 73.1234 12.0385 73.2974 12.5226C73.4685 12.9815 73.5511 13.4899 73.5511 14.0431C73.5511 14.6997 73.4105 15.3012 73.1229 15.84C72.8391 16.3717 72.4427 16.8251 71.9388 17.1997L71.9324 17.2045C71.4276 17.5611 70.8197 17.827 70.1163 18.0086C69.4251 18.2088 68.6595 18.3069 67.8224 18.3069C66.7566 18.3069 65.7957 18.1732 64.9437 17.9003C64.1025 17.6308 63.3908 17.2762 62.8172 16.8305L62.605 16.6656L63.9036 14.0931ZM70.0307 17.6941C70.7062 17.5202 71.2778 17.2681 71.7455 16.9378C72.2131 16.5901 72.5768 16.1728 72.8366 15.686C73.0964 15.1993 73.2263 14.6516 73.2263 14.0431C73.2263 13.5216 73.1484 13.0521 72.9925 12.6349C72.8366 12.2003 72.5768 11.8004 72.2131 11.4353C71.8494 11.0702 71.3731 10.7399 70.7842 10.4443C70.1953 10.1314 69.4765 9.82714 68.6278 9.53159C68.1082 9.35773 67.6752 9.19257 67.3288 9.0361C66.9824 8.87963 66.7052 8.72316 66.4974 8.56669C66.2895 8.41022 66.1423 8.24506 66.0557 8.07121C65.9864 7.89735 65.9518 7.70611 65.9518 7.49749C65.9518 7.06285 66.1856 6.66298 66.6533 6.29789C67.1209 5.93279 67.8051 5.75025 68.7057 5.75025C69.4332 5.75025 70.0914 5.83717 70.6803 6.01103C71.1653 6.15013 71.606 6.32262 72.0023 6.5285C72.1013 6.57994 72.1976 6.63346 72.291 6.68906L72.9406 4.75927C72.4036 4.48111 71.7974 4.2551 71.1219 4.08124C70.4637 3.89 69.693 3.79438 68.8097 3.79438C67.9956 3.79438 67.2681 3.89 66.6273 4.08124C66.0038 4.27248 65.4668 4.54196 65.0165 4.88967C64.5835 5.21999 64.2457 5.61116 64.0033 6.06319C63.7781 6.51521 63.6655 7.002 63.6655 7.52357C63.6655 8.58408 63.9773 9.41858 64.6008 10.0271C65.2243 10.6182 66.177 11.1311 67.4587 11.5657C68.1515 11.8091 68.7144 12.0351 69.1474 12.2437C69.5804 12.435 69.9182 12.6349 70.1606 12.8435C70.4204 13.0521 70.5937 13.2695 70.6803 13.4955C70.7842 13.7215 70.8361 13.9649 70.8361 14.2257C70.8361 14.7298 70.585 15.1471 70.0827 15.4774C69.5977 15.7904 68.8703 15.9468 67.9003 15.9468C67.1209 15.9468 66.3848 15.8251 65.692 15.5817C65.1397 15.3827 64.6626 15.1314 64.2608 14.8278C64.1712 14.7601 64.0854 14.6898 64.0033 14.6168L63.016 16.5727C63.5529 16.99 64.2284 17.329 65.0425 17.5898C65.8565 17.8505 66.7832 17.9809 67.8224 17.9809C68.6364 17.9809 69.3726 17.8853 70.0307 17.6941Z" transform="translate(81.4487 1.95581)" fill="#2F3B65"/>
<path d="M0.49363 0.312939C2.0871 0.312939 3.08302 0.94751 3.48139 2.21665C3.60263 2.02541 3.7845 1.7994 4.02698 1.53861C4.28679 1.27783 4.59855 1.03444 4.96228 0.808426C5.32601 0.582414 5.7417 0.391174 6.20935 0.234704C6.677 0.078235 7.19661 0 7.76818 0C8.5476 0 9.29237 0.15647 10.0025 0.469409C10.73 0.782347 11.3622 1.23437 11.8991 1.82548C12.4533 2.41658 12.895 3.14677 13.2241 4.01605C13.5532 4.88532 13.7177 5.8676 13.7177 6.96288C13.7177 8.04078 13.5532 9.02306 13.2241 9.90972C12.9123 10.7964 12.4793 11.5613 11.9251 12.2046C11.3881 12.8305 10.7646 13.3173 10.0545 13.665C9.34433 14.0127 8.59956 14.1865 7.82014 14.1865C7.00608 14.1865 6.25265 14.0301 5.55983 13.7171C4.88434 13.3868 4.32143 13.013 3.8711 12.5958V19.6108H1.53285V3.78134C1.53285 3.19024 1.38563 2.77298 1.09118 2.52959C0.814057 2.26881 0.450329 2.13841 0 2.13841L0.49363 0.312939ZM11.3275 7.04112C11.3275 6.25877 11.2149 5.56335 10.9898 4.95486C10.7819 4.32898 10.4875 3.79873 10.1064 3.36409C9.7427 2.92945 9.30969 2.59913 8.8074 2.37312C8.32243 2.14711 7.80282 2.0341 7.24857 2.0341C6.50379 2.0341 5.8283 2.22534 5.22209 2.60782C4.63319 2.97292 4.18287 3.37278 3.8711 3.80742V10.4834C4.32143 10.9528 4.83238 11.344 5.40395 11.657C5.99284 11.9525 6.64236 12.1003 7.35249 12.1003C7.94138 12.1003 8.47831 11.9786 8.96328 11.7352C9.44825 11.4918 9.86394 11.1528 10.2104 10.7181C10.5741 10.2661 10.8512 9.73587 11.0417 9.12737C11.2323 8.5015 11.3275 7.80608 11.3275 7.04112Z" transform="translate(35.2686 5.75024)" fill="#38A4E7"/>
<path d="M16.0633 7.17151C16.0633 6.16315 16.2192 5.22434 16.5309 4.35506C16.8427 3.4684 17.2757 2.70344 17.83 2.06018C18.4015 1.41692 19.077 0.912738 19.8564 0.547644C20.6532 0.182548 21.5192 0 22.4545 0C23.2339 0 23.9354 0.139084 24.5589 0.417252C25.1998 0.678034 25.754 1.00836 26.2217 1.40822V0.312939H28.3521V10.5878C28.3521 11.2484 28.508 11.683 28.8197 11.8917C29.1488 12.0829 29.5039 12.1785 29.8849 12.1785L29.3913 14.004C27.7285 14.004 26.724 13.326 26.3776 11.9699C26.1697 12.2481 25.9272 12.5262 25.6501 12.8044C25.3903 13.0652 25.0872 13.2999 24.7408 13.5085C24.3944 13.7171 24.0047 13.8823 23.5717 14.004C23.1386 14.1257 22.6623 14.1865 22.1427 14.1865C21.294 14.1865 20.4973 14.0214 19.7525 13.6911C19.0251 13.3607 18.3842 12.8913 17.83 12.2828C17.293 11.6743 16.86 10.9442 16.5309 10.0923C16.2192 9.223 16.0633 8.24941 16.0633 7.17151ZM22.6623 12.1003C23.3205 12.1003 23.944 11.9438 24.5329 11.6309C25.1218 11.3179 25.6155 10.9094 26.0138 10.4052V3.12939C25.5462 2.79906 25.0266 2.53828 24.455 2.34704C23.9007 2.13841 23.3118 2.0341 22.6883 2.0341C22.0648 2.0341 21.4932 2.1558 20.9736 2.3992C20.454 2.64259 20.0037 2.9903 19.6226 3.44232C19.2589 3.87696 18.9731 4.40722 18.7653 5.0331C18.5574 5.65897 18.4535 6.3457 18.4535 7.09327C18.4535 7.82346 18.5574 8.5015 18.7653 9.12737C18.9731 9.73587 19.2675 10.2661 19.6486 10.7181C20.0296 11.1528 20.4713 11.4918 20.9736 11.7352C21.4932 11.9786 22.0561 12.1003 22.6623 12.1003Z" transform="translate(35.2686 5.75024)" fill="#38A4E7"/>
<path d="M32.8378 19.9238C32.3182 19.9238 31.8592 19.8716 31.4608 19.7673C31.0798 19.663 30.7767 19.5413 30.5515 19.4022L31.0711 17.4463C31.2789 17.568 31.5301 17.6723 31.8245 17.7593C32.1363 17.8462 32.4914 17.8897 32.8897 17.8897C33.2535 17.8897 33.5912 17.8375 33.903 17.7332C34.2321 17.6289 34.5438 17.4463 34.8383 17.1855C35.1327 16.9248 35.4099 16.5684 35.6697 16.1163C35.9468 15.6643 36.2152 15.0993 36.4751 14.4213L37.0726 12.8566H35.8255L30.5515 0.938816L32.6299 0L37.6702 11.2919L41.5932 0.104313L43.7496 0.938816L38.7873 14.5516C38.4063 15.5948 37.9992 16.4554 37.5662 17.1334C37.1505 17.8288 36.7002 18.3851 36.2152 18.8024C35.7303 19.2196 35.202 19.5065 34.6304 19.663C34.0762 19.8368 33.4786 19.9238 32.8378 19.9238Z" transform="translate(35.2686 5.75024)" fill="#38A4E7"/>
<path fill-rule="evenodd" clip-rule="evenodd" d="M0.669927 0.418216H0.918286C1.75567 0.418216 2.46911 0.584741 3.03438 0.944909C3.44462 1.2063 3.76234 1.56055 3.98997 1.99848C4.05909 1.91751 4.13392 1.83381 4.21422 1.74745L4.22186 1.73923C4.50199 1.45805 4.83437 1.19965 5.216 0.962512C5.60411 0.721349 6.04329 0.519994 6.53131 0.356709C7.03687 0.187553 7.59181 0.105276 8.19283 0.105276C9.0165 0.105276 9.80533 0.270831 10.5565 0.601628C11.3255 0.932671 11.9948 1.41125 12.562 2.0352C13.1485 2.66128 13.6106 3.42897 13.9523 4.33151C14.2977 5.24371 14.4671 6.26618 14.4671 7.39414C14.4671 8.50448 14.2977 9.52506 13.9541 10.4521C13.6303 11.3718 13.1784 12.1723 12.5957 12.8487C12.0312 13.5066 11.3729 14.0213 10.6215 14.3892C9.86765 14.7583 9.07425 14.9438 8.2448 14.9438C7.38813 14.9438 6.58888 14.7789 5.85122 14.4457L5.84219 14.4416C5.38938 14.2202 4.98168 13.9778 4.62051 13.7139V20.368H1.63275V4.2126C1.63275 3.66551 1.49578 3.36655 1.30939 3.21247L1.30133 3.20582L1.29372 3.19865C1.0877 3.00478 0.80876 2.89565 0.424655 2.89565H0L0.669927 0.418216ZM4.29575 13.027C4.39818 13.1219 4.50643 13.2146 4.62051 13.305C5.00798 13.6121 5.46264 13.8932 5.98449 14.1484C6.6773 14.4613 7.43074 14.6178 8.2448 14.6178C9.02421 14.6178 9.76899 14.4439 10.4791 14.0962C11.1893 13.7485 11.8128 13.2617 12.3497 12.6359C12.904 11.9926 13.337 11.2276 13.6487 10.341C13.9778 9.45432 14.1424 8.47204 14.1424 7.39414C14.1424 6.29885 13.9778 5.31657 13.6487 4.4473C13.3197 3.57803 12.878 2.84784 12.3237 2.25673C11.7868 1.66562 11.1546 1.2136 10.4272 0.900663C9.71703 0.587724 8.97225 0.431254 8.19283 0.431254C7.62126 0.431254 7.10165 0.509489 6.634 0.665958C6.16635 0.822428 5.75067 1.01367 5.38694 1.23968C5.02321 1.46569 4.71144 1.70909 4.45164 1.96987C4.33267 2.09781 4.2283 2.21739 4.13852 2.32859C4.0453 2.44405 3.96781 2.55049 3.90605 2.6479C3.8654 2.51842 3.81854 2.39555 3.76546 2.27928C3.29824 1.25589 2.34919 0.744194 0.918286 0.744194L0.424655 2.56967C0.540205 2.56967 0.650052 2.57825 0.754198 2.59542C1.05594 2.64517 1.30982 2.76697 1.51584 2.96084C1.81028 3.20424 1.95751 3.62149 1.95751 4.2126V20.0421H4.29575V13.027ZM11.1063 5.4892C10.9103 4.89894 10.6359 4.40835 10.2873 4.01069L10.2823 4.00507C9.94925 3.60703 9.55555 3.30716 9.09921 3.10183L9.09529 3.10006C8.65474 2.89476 8.18201 2.79133 7.67322 2.79133C6.98702 2.79133 6.37187 2.9666 5.81957 3.31506L5.81741 3.31643C5.29415 3.64083 4.89895 3.98568 4.62051 4.34688V10.7813C5.02393 11.1843 5.4765 11.5235 5.97898 11.7992C6.51796 12.0687 7.11549 12.2056 7.77715 12.2056C8.32005 12.2056 8.80662 12.0937 9.2427 11.8749C9.68467 11.6531 10.0637 11.3444 10.3814 10.9458L10.3824 10.9446C10.7179 10.5276 10.9767 10.0349 11.1562 9.46214C11.3356 8.87214 11.4274 8.20984 11.4274 7.47237C11.4274 6.72104 11.3193 6.06519 11.11 5.49962L11.1063 5.4892ZM11.4664 9.55863C11.2759 10.1671 10.9987 10.6974 10.635 11.1494C10.2886 11.584 9.87291 11.9231 9.38794 12.1665C8.90297 12.4098 8.36604 12.5315 7.77715 12.5315C7.06701 12.5315 6.4175 12.3838 5.82861 12.0882C5.25703 11.7753 4.74608 11.3841 4.29575 10.9147V4.23867C4.60752 3.80404 5.05785 3.40417 5.64674 3.03908C6.25295 2.6566 6.92845 2.46536 7.67322 2.46536C8.22748 2.46536 8.74709 2.57836 9.23206 2.80437C9.73435 3.03038 10.1674 3.36071 10.5311 3.79534C10.9121 4.22998 11.2066 4.76024 11.4144 5.38612C11.6396 5.99461 11.7522 6.69003 11.7522 7.47237C11.7522 8.23733 11.6569 8.93275 11.4664 9.55863ZM29.8159 14.4353C28.315 14.4353 27.3504 13.8828 26.9221 12.7778C26.8759 12.6587 26.8359 12.5331 26.8022 12.4012C26.7245 12.5052 26.6419 12.6092 26.5545 12.7133C26.4081 12.8874 26.2482 13.0615 26.0748 13.2357C25.8149 13.4964 25.5118 13.7311 25.1654 13.9398C24.819 14.1484 24.4293 14.3136 23.9963 14.4353C23.5633 14.557 23.087 14.6178 22.5674 14.6178C21.7187 14.6178 20.9219 14.4526 20.1772 14.1223C19.4497 13.792 18.8089 13.3226 18.2546 12.7141C17.7177 12.1056 17.2847 11.3754 16.9556 10.5235C16.6438 9.65425 16.4879 8.68066 16.4879 7.60276C16.4879 6.59441 16.6438 5.65559 16.9556 4.78632C17.2673 3.89966 17.7004 3.1347 18.2546 2.49143C18.8262 1.84817 19.5017 1.34399 20.2811 0.978898C21.0778 0.613802 21.9438 0.431254 22.8791 0.431254C23.6586 0.431254 24.36 0.570338 24.9836 0.848506C25.4819 1.05131 25.9279 1.29617 26.3216 1.58309C26.4341 1.66511 26.5424 1.75058 26.6463 1.83948V0.744194H28.7767V11.019C28.7767 11.6797 28.9326 12.1143 29.2444 12.3229C29.4766 12.4579 29.7217 12.5452 29.9798 12.5849C30.0875 12.6015 30.1974 12.6098 30.3096 12.6098L29.8159 14.4353ZM29.4169 12.0465C29.6936 12.2051 29.9893 12.2838 30.3096 12.2838H30.7342L30.0643 14.7612H29.8159C28.9434 14.7612 28.2067 14.5836 27.6342 14.1972C27.2149 13.9142 26.9006 13.5305 26.6872 13.0578C26.5672 13.1944 26.4395 13.3305 26.3044 13.4662C26.024 13.7475 25.6995 13.9983 25.3325 14.2193C24.9586 14.4445 24.5417 14.6205 24.0839 14.7492C23.6183 14.88 23.1121 14.9438 22.5674 14.9438C21.6754 14.9438 20.8338 14.7699 20.0459 14.4205L20.0433 14.4193C19.2746 14.0702 18.598 13.5742 18.0149 12.9341L18.0115 12.9303C17.446 12.2895 16.9941 11.5249 16.6528 10.6414L16.6499 10.634C16.3235 9.72392 16.1632 8.71215 16.1632 7.60276C16.1632 6.56057 16.3243 5.58437 16.6497 4.67685C16.9735 3.75624 17.4257 2.95512 18.009 2.27819L18.0122 2.27443C18.6132 1.59809 19.3245 1.06728 20.1438 0.683502L20.1462 0.682349C20.9881 0.296557 21.9005 0.105276 22.8791 0.105276C23.6955 0.105276 24.4412 0.250756 25.1105 0.548422C25.551 0.728036 25.9551 0.940313 26.3216 1.18593V0.418216H29.1015V11.019C29.1015 11.6427 29.2499 11.9292 29.4169 12.0465ZM24.7656 3.08352C24.2497 2.88934 23.6997 2.79133 23.113 2.79133C22.5327 2.79133 22.0085 2.9043 21.5356 3.12585C21.0599 3.34865 20.6471 3.66678 20.2956 4.08367C19.9622 4.48212 19.6949 4.9745 19.498 5.56743C19.3026 6.15597 19.2029 6.80739 19.2029 7.52453C19.2029 8.22285 19.3022 8.86526 19.4975 9.45417C19.693 10.026 19.9676 10.5187 20.3191 10.9364C20.6715 11.3378 21.0773 11.6486 21.5374 11.8719C22.0111 12.0935 22.5262 12.2056 23.087 12.2056C23.6915 12.2056 24.263 12.0624 24.8056 11.774C25.322 11.4996 25.757 11.1485 26.1137 10.7205V3.73304C25.7093 3.46591 25.2641 3.25055 24.7769 3.08754L24.7656 3.08352ZM26.4385 3.56064V10.8365C26.0401 11.3406 25.5465 11.7492 24.9576 12.0621C24.3687 12.3751 23.7452 12.5315 23.087 12.5315C22.4808 12.5315 21.9179 12.4098 21.3983 12.1665C20.896 11.9231 20.4543 11.584 20.0732 11.1494C19.6922 10.6974 19.3978 10.1671 19.1899 9.55863C18.9821 8.93275 18.8781 8.25472 18.8781 7.52453C18.8781 6.77695 18.9821 6.09023 19.1899 5.46435C19.3978 4.83847 19.6835 4.30822 20.0473 3.87358C20.4283 3.42156 20.8786 3.07385 21.3983 2.83045C21.9179 2.58705 22.4894 2.46536 23.113 2.46536C23.7365 2.46536 24.3254 2.56967 24.8796 2.77829C25.4512 2.96953 25.9708 3.23032 26.4385 3.56064ZM31.8035 20.514L31.8 20.5131C31.4023 20.4042 31.067 20.2723 30.8059 20.1111L30.6001 19.9839L31.2917 17.3807L31.6594 17.596C31.8388 17.7011 32.0637 17.7958 32.3385 17.8771C32.6158 17.9541 32.94 17.9949 33.3144 17.9949C33.6469 17.9949 33.9496 17.9473 34.2249 17.8552L34.2298 17.8536C34.5101 17.7647 34.7829 17.6072 35.0481 17.3724C35.3091 17.1412 35.5654 16.8154 35.813 16.3847L35.8176 16.3767C36.0812 15.9467 36.3414 15.4013 36.5965 14.7358M36.5965 14.7358L37.025 13.6138H36.0391L30.5481 1.20593L33.218 0L38.0586 10.8447L41.8226 0.110631L44.5889 1.18118L39.517 15.0949C39.1313 16.1506 38.7155 17.0332 38.2669 17.7365C37.8384 18.4525 37.3677 19.0368 36.8512 19.4811C36.3343 19.9259 35.7656 20.2366 35.1463 20.4071C34.5593 20.5906 33.9306 20.681 33.2624 20.681C32.722 20.681 32.2345 20.6268 31.8035 20.514M35.0551 20.0942C35.6267 19.9378 36.1549 19.6509 36.6399 19.2336C37.1249 18.8164 37.5752 18.2601 37.9909 17.5646C38.4239 16.8866 38.8309 16.026 39.212 14.9829L44.1743 1.37007L42.0179 0.535568L38.0948 11.7231L33.0549 0.431958L30.9761 1.37007L36.2502 13.2878H37.4973L36.8997 14.8525C36.6399 15.5305 36.3714 16.0956 36.0943 16.5476C35.8345 16.9996 35.5574 17.356 35.2629 17.6168C34.9685 17.8776 34.6567 18.0601 34.3276 18.1644C34.0159 18.2688 33.6781 18.3209 33.3144 18.3209C32.916 18.3209 32.561 18.2774 32.2492 18.1905C32.0831 18.1415 31.9308 18.0869 31.7922 18.0268C31.6852 17.9804 31.5863 17.9306 31.4958 17.8776L30.9761 19.8334C31.2013 19.9725 31.5044 20.0942 31.8855 20.1985C32.2838 20.3029 32.7428 20.355 33.2624 20.355C33.9033 20.355 34.5008 20.2681 35.0551 20.0942Z" transform="translate(34.8438 5.31909)" fill="#38A4E7"/>
</svg>
