<svg width="24" height="24" viewBox="0 0 24 24" fill="none" xmlns="http://www.w3.org/2000/svg">
<rect x="0.5" y="0.5" width="15" height="19.8" transform="translate(4 2)" fill="white" stroke="#2F3B65"/>
<line y1="-0.5" x2="9.14286" y2="-0.5" transform="translate(7.42871 13.1992)" stroke="#2F3B65"/>
<line y1="-0.5" x2="9.14286" y2="-0.5" transform="translate(7.42871 15.3887)" stroke="#2F3B65"/>
<path d="M0 0H9.14286M0 2.021H9.14286" transform="translate(7.42871 17.1787)" stroke="#2F3B65"/>
<path d="M2.97614 5.69092C2.97614 5.50407 2.92374 5.35596 2.81892 5.24658C2.71638 5.13493 2.54092 5.03239 2.29255 4.93896C2.04418 4.84554 1.82999 4.75326 1.64997 4.66211C1.46996 4.56868 1.31501 4.46273 1.18513 4.34424C1.05752 4.22347 0.957264 4.08219 0.884347 3.92041C0.813709 3.75863 0.77839 3.56608 0.77839 3.34277C0.77839 2.95768 0.901437 2.64209 1.14753 2.396C1.39362 2.1499 1.72061 2.00635 2.12849 1.96533V1.23389H2.67536V1.97559C3.07868 2.03255 3.39428 2.20117 3.62214 2.48145C3.85 2.75944 3.96394 3.12061 3.96394 3.56494H2.97614C2.97614 3.2915 2.91918 3.08757 2.80525 2.95312C2.69359 2.81641 2.5432 2.74805 2.35407 2.74805C2.16722 2.74805 2.02253 2.8016 1.91999 2.90869C1.81745 3.01351 1.76618 3.15934 1.76618 3.34619C1.76618 3.51937 1.81631 3.65837 1.91657 3.76318C2.01683 3.868 2.20254 3.9751 2.4737 4.08447C2.74714 4.19385 2.97159 4.29753 3.14704 4.39551C3.3225 4.49121 3.47061 4.60059 3.59138 4.72363C3.71215 4.8444 3.80443 4.9834 3.86823 5.14062C3.93204 5.29557 3.96394 5.47673 3.96394 5.68408C3.96394 6.07145 3.84317 6.3859 3.60163 6.62744C3.3601 6.86898 3.02741 7.01139 2.60359 7.05469V7.73486H2.06013V7.05811C1.59301 7.00798 1.2307 6.84277 0.973214 6.5625C0.718006 6.27995 0.590402 5.90511 0.590402 5.43799H1.57819C1.57819 5.70915 1.642 5.91764 1.7696 6.06348C1.89948 6.20703 2.08519 6.27881 2.32673 6.27881C2.52725 6.27881 2.68562 6.2264 2.80183 6.12158C2.91804 6.01449 2.97614 5.87093 2.97614 5.69092Z" transform="translate(9.59961 2.80078)" fill="#2F3B65"/>
<circle cx="6" cy="6" r="5.5" transform="translate(12 11)" fill="white" stroke="#2F3B65"/>
<path d="M3.27803 4.80518H5.45869V5.74512H3.27803V8.21582H2.279V5.74512H0.0983398V4.80518H2.279V2.52246H3.27803V4.80518Z" transform="translate(15.2002 11.8008)" fill="#2F3B65"/>
</svg>
