<svg width="22" height="18" viewBox="0 0 22 18" fill="none" xmlns="http://www.w3.org/2000/svg">
<rect x="0.5" y="0.5" width="21" height="17" rx="1.5" stroke="#38A4E7"/>
<path d="M2.8875 0V6.3C1.26088 6.1425 0 4.79115 0 3.15C0 1.50885 1.26088 0.1575 2.8875 0ZM3.53879 0V2.83185H6.41667C6.26588 1.33875 5.05633 0.14805 3.53879 0ZM3.53879 3.46815V6.3C5.05954 6.15195 6.26588 4.96125 6.41667 3.46815H3.53879Z" transform="translate(11.9165 6.30005)" fill="#38A4E7"/>
<path d="M2.40625 6.3H4.01042V0H2.40625V6.3ZM0 6.3H1.60417V3.15H0V6.3ZM4.8125 1.96875V6.3H6.41667V1.96875H4.8125Z" transform="translate(3.6665 6.30005)" fill="#38A4E7"/>
</svg>
