<svg width="74" height="74" viewBox="0 0 74 74" fill="none" xmlns="http://www.w3.org/2000/svg">
<circle cx="36" cy="36" r="36.5" transform="translate(1 1)" fill="white" stroke="#2F3B65"/>
<circle cx="33.8824" cy="33.8824" r="33.8824" transform="translate(3.11719 3.11768)" fill="#2F3B65"/>
<path d="M38.1953 11.1852C38.2621 10.7558 38.2941 10.319 38.2941 9.88235C38.2941 4.43447 33.3872 0 27.3529 0C23.8536 0 20.6403 1.49347 18.6048 3.94236C17.8863 3.78548 17.1544 3.70588 16.4118 3.70588C11.1335 3.70588 6.83824 7.58548 6.83824 12.3529C6.83824 12.4736 6.84088 12.5918 6.84627 12.71C2.89027 13.7716 0 17.0867 0 21C0 25.7675 4.29527 29.6471 9.57353 29.6471H32.8235C38.8578 29.6471 43.7647 25.215 43.7647 19.7647C43.7647 16.1626 41.5717 12.9079 38.1953 11.1852ZM32.8235 27.1765H9.57353C5.79643 27.1765 2.73529 24.4115 2.73529 21C2.73529 17.5885 5.79652 14.8235 9.57353 14.8235C9.78192 14.8235 9.97955 14.8621 10.1826 14.879C9.79791 14.107 9.57353 13.2553 9.57353 12.3529C9.57353 8.94137 12.6348 6.17647 16.4118 6.17647C17.6459 6.17647 18.7892 6.49495 19.7881 7.0113C21.0276 4.34283 23.9472 2.47059 27.3529 2.47059C31.8859 2.47059 35.5588 5.78805 35.5588 9.88235C35.5588 10.8571 35.3371 11.7835 34.9578 12.6377C38.4491 13.4917 41.0294 16.3436 41.0294 19.7647C41.0294 23.859 37.3565 27.1765 32.8235 27.1765Z" transform="translate(15.1172 21.4707)" fill="white"/>
<path d="M32.8235 27.1765H9.57353C5.79643 27.1765 2.73529 24.4115 2.73529 21C2.73529 17.5885 5.79652 14.8235 9.57353 14.8235C9.78192 14.8235 9.97955 14.8621 10.1826 14.879C9.79791 14.107 9.57353 13.2553 9.57353 12.3529C9.57353 8.94137 12.6348 6.17647 16.4118 6.17647C17.6459 6.17647 18.7892 6.49495 19.7881 7.0113C21.0276 4.34283 23.9472 2.47059 27.3529 2.47059C31.8859 2.47059 35.5588 5.78805 35.5588 9.88235C35.5588 10.8571 35.3371 11.7835 34.9578 12.6377C38.4491 13.4917 41.0294 16.3436 41.0294 19.7647C41.0294 23.859 37.3565 27.1765 32.8235 27.1765Z" transform="translate(15.1172 21.4707)" fill="white"/>
<path fill-rule="evenodd" clip-rule="evenodd" d="M5.19372 0.692466L9.03081 4.60964L7.67419 5.99458L5.47494 3.74942L5.47468 13.7893H3.55613V3.74916L1.35662 5.99458L0 4.60964L4.51541 0L5.19372 0.692466Z" transform="translate(32.4844 37.3281)" fill="#2F3B65"/>
</svg>
