<svg width="24" height="24" viewBox="0 0 24 24" fill="none" xmlns="http://www.w3.org/2000/svg">
<path d="M0.5 0.5H23.5V12.2778V16.5H17.5H0.5V0.5Z" transform="translate(0 4)" stroke="#38A4E7"/>
<path d="M3.53597 6.17035C3.53597 5.91167 3.45829 5.70662 3.30294 5.5552C3.15096 5.40063 2.89092 5.25867 2.5228 5.12934C2.15468 5 1.83722 4.87224 1.57042 4.74606C1.30361 4.61672 1.07396 4.47003 0.881459 4.30599C0.692334 4.1388 0.543735 3.94322 0.435664 3.71924C0.330969 3.49527 0.278622 3.22871 0.278622 2.91956C0.278622 2.38644 0.460993 1.94953 0.825735 1.60883C1.19048 1.26814 1.67511 1.0694 2.27964 1.01262V0H3.09017V1.02681C3.68794 1.10568 4.15569 1.33912 4.49341 1.72713C4.83114 2.11199 5 2.61199 5 3.22713H3.53597C3.53597 2.84858 3.45154 2.56625 3.28267 2.38013C3.11719 2.19085 2.89429 2.09621 2.61398 2.09621C2.33705 2.09621 2.12259 2.17035 1.97062 2.31861C1.81864 2.46372 1.74265 2.66562 1.74265 2.92429C1.74265 3.16404 1.81695 3.35647 1.96555 3.50158C2.11415 3.64669 2.3894 3.79495 2.79129 3.94637C3.19656 4.09779 3.52921 4.24133 3.78926 4.37697C4.04931 4.50946 4.26883 4.66088 4.44782 4.83123C4.62682 4.99842 4.76359 5.19085 4.85816 5.40852C4.95272 5.62303 5 5.87382 5 6.16088C5 6.69716 4.82101 7.13249 4.46302 7.46688C4.10503 7.80126 3.61196 7.99842 2.98379 8.05836V9H2.17832V8.06309C1.48598 7.99369 0.949004 7.76498 0.567376 7.37697C0.189125 6.9858 0 6.46688 0 5.82019H1.46403C1.46403 6.19558 1.5586 6.48423 1.74772 6.68612C1.94022 6.88486 2.21547 6.98423 2.57345 6.98423C2.87065 6.98423 3.10537 6.91167 3.27761 6.76656C3.44985 6.6183 3.53597 6.41956 3.53597 6.17035Z" transform="translate(4 8)" fill="#38A4E7"/>
<rect width="9" height="1" transform="translate(11 8)" fill="#38A4E7"/>
<rect width="9" height="1" transform="translate(11 10)" fill="#38A4E7"/>
<rect width="9" height="1" transform="translate(11 12)" fill="#38A4E7"/>
<rect width="9" height="1" transform="translate(11 14)" fill="#38A4E7"/>
<rect width="9" height="1" transform="translate(11 16)" fill="#38A4E7"/>
</svg>
