<svg width="24" height="24" viewBox="0 0 24 24" fill="none" xmlns="http://www.w3.org/2000/svg">
<path fill-rule="evenodd" clip-rule="evenodd" d="M8.68637 16.7401C12.4001 19.6402 17.8019 19.3932 21.2283 15.9994C24.9239 12.3393 24.9239 6.40517 21.2283 2.74507C17.5328 -0.915025 11.5408 -0.915025 7.84524 2.74507C4.34175 6.21482 4.15958 11.7282 7.29871 15.4106C7.18889 15.4602 7.08583 15.5297 6.99526 15.6193L0.303712 22.2465C-0.101237 22.6476 -0.101237 23.2979 0.303712 23.6992C0.708661 24.1003 1.36553 24.1003 1.77048 23.6992L8.46203 17.072C8.56093 16.9739 8.63588 16.8608 8.68637 16.7401ZM19.7616 14.5467C16.8759 17.4044 12.1977 17.4044 9.31201 14.5467C6.42635 11.6889 6.42635 7.05553 9.31201 4.19778C12.1977 1.3399 16.8759 1.3399 19.7616 4.19778C22.6472 7.05553 22.6472 11.6889 19.7616 14.5467Z" fill="#858585"/>
</svg>
