<svg width="24" height="24" viewBox="0 0 24 24" fill="none" xmlns="http://www.w3.org/2000/svg">
<path fill-rule="evenodd" clip-rule="evenodd" d="M19.7954 14.8494C16.856 17.7891 12.0903 17.7891 9.15088 14.8494C6.21143 11.91 6.21143 7.1441 9.15088 4.20465C12.0903 1.2652 16.856 1.2652 19.7954 4.20465C22.7349 7.1441 22.7349 11.91 19.7954 14.8494ZM8.47949 16.9334C12.2212 19.9688 17.728 19.7457 21.21 16.2637C24.9302 12.5433 24.9302 6.51105 21.21 2.79034C17.4893 -0.930115 11.457 -0.930115 7.73633 2.79034C4.25439 6.27252 4.03125 11.7798 7.06689 15.5213C7.0542 15.5328 7.04199 15.5445 7.02979 15.5567L0.292969 22.2933C-0.0976562 22.6839 -0.0976562 23.317 0.292969 23.7076C0.683594 24.098 1.31689 24.098 1.70703 23.7076L8.44385 16.9708C8.45605 16.9586 8.46826 16.9461 8.47949 16.9334Z" fill="#2F3B65"/>
</svg>
