<svg width="16" height="16" viewBox="0 0 16 16" fill="none" xmlns="http://www.w3.org/2000/svg">
<path d="M13.6239 8.71875L13.5889 9.00235L13.8155 9.17646L15.46 10.4402L13.9001 13.0658L11.9261 12.2943L11.6697 12.1941L11.4479 12.3571C11.055 12.646 10.6293 12.8934 10.1711 13.0753L9.90234 13.1819L9.8607 13.468L9.56492 15.5H6.42479L6.12902 13.468L6.08737 13.1819L5.81865 13.0753C5.35892 12.8928 4.94402 12.6551 4.54324 12.3582L4.32109 12.1937L4.06362 12.2943L2.08963 13.0658L0.52995 10.4407L2.19252 9.17821L2.43242 8.99604L2.38351 8.6988C2.34714 8.47781 2.32843 8.23508 2.32843 8C2.32843 7.77691 2.35514 7.53602 2.39379 7.3012L2.44271 7.00396L2.20281 6.82179L0.540235 5.55932L2.09991 2.93419L4.0739 3.7057L4.33027 3.80589L4.55205 3.64287C4.945 3.35402 5.3707 3.10658 5.82894 2.92475L6.09766 2.81811L6.1393 2.53202L6.43508 0.5H9.57521L9.87098 2.53202L9.91263 2.81811L10.1814 2.92475C10.6411 3.10718 11.056 3.34491 11.4568 3.64178L11.6789 3.80633L11.9364 3.7057L13.9104 2.93419L15.47 5.55932L13.8075 6.82179L13.5676 7.00396L13.6165 7.30119C13.6529 7.52267 13.6716 7.75544 13.6716 8C13.6716 8.24469 13.6529 8.48363 13.6239 8.71875ZM4.41421 8C4.41421 9.93934 6.04006 11.5 8 11.5C9.95994 11.5 11.5858 9.93934 11.5858 8C11.5858 6.06066 9.95994 4.5 8 4.5C6.04006 4.5 4.41421 6.06066 4.41421 8Z" stroke="#38A4E7"/>
</svg>
