<svg width="24" height="24" viewBox="0 0 24 24" fill="none" xmlns="http://www.w3.org/2000/svg">
<path d="M12 0C11.403 0 10.8148 0.0408678 10.2417 0.125C10.0895 0.14816 9.94723 0.214726 9.83193 0.316715C9.71664 0.418704 9.63322 0.551786 9.59167 0.7L8.94167 2.94167C8.53431 3.07984 8.13845 3.24447 7.75833 3.43333L5.70833 2.3C5.57379 2.22814 5.42151 2.19623 5.26944 2.20804C5.11736 2.21986 4.97183 2.27489 4.85 2.36667C4.38537 2.71234 3.93893 3.0944 3.51667 3.51667C3.0944 3.93893 2.71234 4.38537 2.36667 4.85C2.27489 4.97183 2.21986 5.11736 2.20804 5.26944C2.19623 5.42151 2.22814 5.57379 2.3 5.70833L3.43333 7.75833C3.24447 8.13845 3.07984 8.53431 2.94167 8.94167L0.7 9.59167C0.551786 9.63322 0.418704 9.71664 0.316715 9.83193C0.214726 9.94723 0.14816 10.0895 0.125 10.2417C0.040866 10.8148 0 11.403 0 12C0 12.597 0.040866 13.1852 0.125 13.7583C0.14816 13.9105 0.214726 14.0528 0.316715 14.1681C0.418704 14.2834 0.551786 14.3668 0.7 14.4083L2.94167 15.0583C3.07984 15.4657 3.24447 15.8615 3.43333 16.2417L2.3 18.2917C2.22814 18.4262 2.19623 18.5785 2.20804 18.7306C2.21986 18.8826 2.27489 19.0282 2.36667 19.15C2.71234 19.6146 3.0944 20.0611 3.51667 20.4833C3.93894 20.9056 4.38537 21.2877 4.85 21.6333C4.97183 21.7251 5.11736 21.7801 5.26944 21.792C5.42151 21.8038 5.57379 21.7719 5.70833 21.7L7.75833 20.5667C8.13845 20.7555 8.53431 20.9202 8.94167 21.0583L9.59167 23.3C9.63322 23.4482 9.71664 23.5813 9.83193 23.6833C9.94723 23.7853 10.0895 23.8518 10.2417 23.875C10.8148 23.9591 11.403 24 12 24C12.597 24 13.1852 23.9591 13.7583 23.875C13.9105 23.8518 14.0528 23.7853 14.1681 23.6833C14.2834 23.5813 14.3668 23.4482 14.4083 23.3L15.0583 21.0583C15.4657 20.9202 15.8615 20.7555 16.2417 20.5667L18.2917 21.7C18.4262 21.7719 18.5785 21.8038 18.7306 21.792C18.8826 21.7801 19.0282 21.7251 19.15 21.6333C19.6146 21.2877 20.0611 20.9056 20.4833 20.4833C20.9056 20.0611 21.2877 19.6146 21.6333 19.15C21.7251 19.0282 21.7801 18.8826 21.792 18.7306C21.8038 18.5785 21.7719 18.4262 21.7 18.2917L20.5667 16.2417C20.7555 15.8615 20.9202 15.4657 21.0583 15.0583L23.3 14.4083C23.4482 14.3668 23.5813 14.2834 23.6833 14.1681C23.7853 14.0528 23.8518 13.9105 23.875 13.7583C23.9591 13.1852 24 12.597 24 12C24 11.403 23.9591 10.8148 23.875 10.2417C23.8518 10.0895 23.7853 9.94723 23.6833 9.83193C23.5813 9.71664 23.4482 9.63322 23.3 9.59167L21.0583 8.94167C20.9202 8.53431 20.7555 8.13845 20.5667 7.75833L21.7 5.70833C21.7719 5.57379 21.8038 5.42151 21.792 5.26944C21.7801 5.11736 21.7251 4.97183 21.6333 4.85C21.2877 4.38537 20.9056 3.93893 20.4833 3.51667C20.0611 3.0944 19.6146 2.71234 19.15 2.36667C19.0282 2.27489 18.8826 2.21986 18.7306 2.20804C18.5785 2.19623 18.4262 2.22814 18.2917 2.3L16.2417 3.43333C15.8615 3.24447 15.4657 3.07984 15.0583 2.94167L14.4083 0.7C14.3668 0.551786 14.2834 0.418704 14.1681 0.316715C14.0528 0.214726 13.9105 0.14816 13.7583 0.125C13.1852 0.0408678 12.597 0 12 0ZM12 1.6C12.3509 1.6 12.6915 1.64088 13.0333 1.675L13.6333 3.75C13.6707 3.88089 13.7408 4.00009 13.837 4.09633C13.9332 4.19258 14.0524 4.26268 14.1833 4.3C14.7865 4.47066 15.3619 4.71566 15.9 5.01667C16.0186 5.08232 16.1519 5.11677 16.2875 5.11677C16.4231 5.11677 16.5564 5.08232 16.675 5.01667L18.575 3.975C18.8397 4.19182 19.1114 4.39478 19.3583 4.64167C19.6052 4.88855 19.8082 5.16027 20.025 5.425L18.9833 7.325C18.9177 7.4436 18.8832 7.57694 18.8832 7.7125C18.8832 7.84806 18.9177 7.9814 18.9833 8.1C19.2843 8.63805 19.5293 9.21351 19.7 9.81667C19.7373 9.94756 19.8074 10.0668 19.9037 10.163C19.9999 10.2592 20.1191 10.3293 20.25 10.3667L22.325 10.9667C22.3591 11.3085 22.4 11.6491 22.4 12C22.4 12.3509 22.3591 12.6915 22.325 13.0333L20.25 13.6333C20.1191 13.6707 19.9999 13.7408 19.9037 13.837C19.8074 13.9332 19.7373 14.0524 19.7 14.1833C19.5293 14.7865 19.2843 15.3619 18.9833 15.9C18.9177 16.0186 18.8832 16.1519 18.8832 16.2875C18.8832 16.4231 18.9177 16.5564 18.9833 16.675L20.025 18.575C19.8082 18.8397 19.6052 19.1114 19.3583 19.3583C19.1114 19.6052 18.8397 19.8082 18.575 20.025L16.675 18.9833C16.5564 18.9177 16.4231 18.8832 16.2875 18.8832C16.1519 18.8832 16.0186 18.9177 15.9 18.9833C15.3619 19.2843 14.7865 19.5293 14.1833 19.7C14.0524 19.7373 13.9332 19.8074 13.837 19.9037C13.7408 19.9999 13.6707 20.1191 13.6333 20.25L13.0333 22.325C12.6915 22.3591 12.3509 22.4 12 22.4C11.6491 22.4 11.3085 22.3591 10.9667 22.325L10.3667 20.25C10.3293 20.1191 10.2592 19.9999 10.163 19.9037C10.0668 19.8074 9.94756 19.7373 9.81667 19.7C9.21351 19.5293 8.63805 19.2843 8.1 18.9833C7.9814 18.9177 7.84806 18.8832 7.7125 18.8832C7.57694 18.8832 7.4436 18.9177 7.325 18.9833L5.425 20.025C5.16027 19.8082 4.88856 19.6052 4.64167 19.3583C4.39478 19.1114 4.19182 18.8397 3.975 18.575L5.01667 16.675C5.08232 16.5564 5.11677 16.4231 5.11677 16.2875C5.11677 16.1519 5.08232 16.0186 5.01667 15.9C4.71566 15.3619 4.47066 14.7865 4.3 14.1833C4.26268 14.0524 4.19258 13.9332 4.09633 13.837C4.00009 13.7408 3.88089 13.6707 3.75 13.6333L1.675 13.0333C1.64088 12.6915 1.6 12.3509 1.6 12C1.6 11.6491 1.64088 11.3085 1.675 10.9667L3.75 10.3667C3.88089 10.3293 4.00009 10.2592 4.09633 10.163C4.19258 10.0668 4.26268 9.94756 4.3 9.81667C4.47066 9.21351 4.71566 8.63805 5.01667 8.1C5.08232 7.9814 5.11677 7.84806 5.11677 7.7125C5.11677 7.57694 5.08232 7.4436 5.01667 7.325L3.975 5.425C4.19182 5.16027 4.39478 4.88855 4.64167 4.64167C4.88856 4.39478 5.16027 4.19182 5.425 3.975L7.325 5.01667C7.4436 5.08232 7.57694 5.11677 7.7125 5.11677C7.84806 5.11677 7.9814 5.08232 8.1 5.01667C8.63805 4.71566 9.21351 4.47066 9.81667 4.3C9.94756 4.26268 10.0668 4.19258 10.163 4.09633C10.2592 4.00009 10.3293 3.88089 10.3667 3.75L10.9667 1.675C11.3085 1.64088 11.6491 1.6 12 1.6ZM12 6.4C8.91668 6.4 6.4 8.91668 6.4 12C6.4 15.0833 8.91668 17.6 12 17.6C15.0833 17.6 17.6 15.0833 17.6 12C17.6 8.91668 15.0833 6.4 12 6.4ZM12 8C14.2186 8 16 9.78139 16 12C16 14.2186 14.2186 16 12 16C9.78139 16 8 14.2186 8 12C8 9.78139 9.78139 8 12 8Z" fill="#2F3B65"/>
</svg>
