<svg width="16" height="16" viewBox="0 0 16 16" fill="none" xmlns="http://www.w3.org/2000/svg">
<path d="M8.59556 5.08333H0.25V3.80556H8.59556H9.19746L8.77267 3.37912L6.65543 1.25367L7.55556 0.353554L11.6464 4.44444L7.55556 8.53534L6.65543 7.63521L8.77267 5.50977L9.19746 5.08333H8.59556Z" transform="translate(0 3.55554)" fill="#2F3B65" stroke="white" stroke-width="0.5"/>
<path fill-rule="evenodd" clip-rule="evenodd" d="M2 1H14C14.5523 1 15 1.44772 15 2V14C15 14.5523 14.5523 15 14 15H2C1.44772 15 1 14.5523 1 14V12V11V10H0V11V12V14C0 15.1046 0.895431 16 2 16H14C15.1046 16 16 15.1046 16 14V2C16 0.895431 15.1046 0 14 0H2C0.895431 0 0 0.895431 0 2V4V5V6H1V5V4V2C1 1.44772 1.44772 1 2 1Z" fill="#2F3B65"/>
</svg>
