<svg width="16" height="16" viewBox="0 0 16 16" fill="none" xmlns="http://www.w3.org/2000/svg">
<path fill-rule="evenodd" clip-rule="evenodd" d="M1 0.75H11.3076C11.4458 0.75 11.5576 0.861938 11.5576 1V11.3077C11.5576 11.4459 11.4458 11.5577 11.3076 11.5577H8.61475V12.3077H11.3076C11.8599 12.3077 12.3076 11.86 12.3076 11.3077V1C12.3076 0.447693 11.8599 0 11.3076 0H1C0.447754 0 0 0.447693 0 1V3.6922H0.75V1C0.75 0.861938 0.861816 0.75 1 0.75Z" transform="translate(3.69287)" fill="#2F3B65"/>
<path fill-rule="evenodd" clip-rule="evenodd" d="M11.3076 0.75H1C0.861929 0.75 0.75 0.861929 0.75 1V11.3078C0.75 11.4458 0.861929 11.5578 1 11.5578H11.3076C11.4456 11.5578 11.5576 11.4458 11.5576 11.3078V1C11.5576 0.861929 11.4456 0.75 11.3076 0.75ZM1 0C0.447715 0 0 0.447715 0 1V11.3078C0 11.86 0.447715 12.3078 1 12.3078H11.3076C11.8599 12.3078 12.3076 11.86 12.3076 11.3078V1C12.3076 0.447715 11.8599 0 11.3076 0H1Z" transform="translate(0 3.6922)" fill="#2F3B65"/>
</svg>
