<svg width="24" height="16" viewBox="0 0 24 16" fill="none" xmlns="http://www.w3.org/2000/svg">
<rect x="0.5" y="0.5" width="23" height="15" rx="1.5" fill="white" stroke="#2F3B65"/>
<path d="M8.17178 9.089L7.55578 7.4055C7.52544 7.33083 7.49394 7.24217 7.46128 7.1395C7.42861 7.03683 7.39594 6.926 7.36328 6.807C7.33294 6.926 7.30144 7.038 7.26878 7.143C7.23611 7.24567 7.20461 7.3355 7.17428 7.4125L6.56178 9.089H8.17178ZM9.83428 11H9.10628C9.02461 11 8.95811 10.9802 8.90678 10.9405C8.85544 10.8985 8.81694 10.8472 8.79128 10.7865L8.41328 9.754H6.31678L5.93878 10.7865C5.92011 10.8402 5.88394 10.8892 5.83028 10.9335C5.77661 10.9778 5.71011 11 5.63078 11H4.89578L6.88728 5.939H7.84628L9.83428 11ZM13.4832 9.8065C13.5346 9.8065 13.5801 9.82633 13.6197 9.866L13.9907 10.2685C13.7854 10.5228 13.5322 10.7177 13.2312 10.853C12.9326 10.9883 12.5732 11.056 12.1532 11.056C11.7776 11.056 11.4392 10.9918 11.1382 10.8635C10.8396 10.7352 10.5841 10.5567 10.3717 10.328C10.1594 10.0993 9.99607 9.82633 9.88174 9.509C9.76974 9.19167 9.71374 8.84517 9.71374 8.4695C9.71374 8.08917 9.77441 7.7415 9.89574 7.4265C10.0171 7.10917 10.1874 6.83617 10.4067 6.6075C10.6284 6.37883 10.8921 6.2015 11.1977 6.0755C11.5034 5.94717 11.8417 5.883 12.2127 5.883C12.5814 5.883 12.9081 5.94367 13.1927 6.065C13.4797 6.18633 13.7236 6.345 13.9242 6.541L13.6092 6.9785C13.5906 7.0065 13.5661 7.031 13.5357 7.052C13.5077 7.073 13.4681 7.0835 13.4167 7.0835C13.3817 7.0835 13.3456 7.07417 13.3082 7.0555C13.2709 7.0345 13.2301 7.01 13.1857 6.982C13.1414 6.95167 13.0901 6.919 13.0317 6.884C12.9734 6.849 12.9057 6.8175 12.8287 6.7895C12.7517 6.75917 12.6619 6.73467 12.5592 6.716C12.4589 6.695 12.3422 6.6845 12.2092 6.6845C11.9829 6.6845 11.7752 6.72533 11.5862 6.807C11.3996 6.88633 11.2386 7.003 11.1032 7.157C10.9679 7.30867 10.8629 7.49533 10.7882 7.717C10.7136 7.93633 10.6762 8.18717 10.6762 8.4695C10.6762 8.75417 10.7159 9.00733 10.7952 9.229C10.8769 9.45067 10.9866 9.63733 11.1242 9.789C11.2619 9.94067 11.4241 10.0573 11.6107 10.139C11.7974 10.2183 11.9981 10.258 12.2127 10.258C12.3411 10.258 12.4566 10.251 12.5592 10.237C12.6642 10.223 12.7599 10.2008 12.8462 10.1705C12.9349 10.1402 13.0177 10.1017 13.0947 10.055C13.1741 10.006 13.2522 9.9465 13.3292 9.8765C13.3526 9.8555 13.3771 9.83917 13.4027 9.8275C13.4284 9.8135 13.4552 9.8065 13.4832 9.8065ZM18.7022 5.939V11H17.7572V8.788H15.3807V11H14.4357V5.939H15.3807V8.116H17.7572V5.939H18.7022Z" fill="#2F3B65"/>
</svg>
