<svg width="24" height="24" viewBox="0 0 24 24" fill="none" xmlns="http://www.w3.org/2000/svg">
<path d="M24 11.9999C24 18.6274 18.6275 24 12.0001 24C5.37258 24 -7.2991e-10 18.6274 -7.2991e-10 11.9999C-7.2991e-10 5.37255 5.37258 -9.38451e-10 12.0001 -9.38451e-10C18.6274 -9.38451e-10 24 5.37255 24 11.9999Z" fill="#BEBEBE"/>
<path d="M18.9046 9.45236C18.9046 14.6724 14.6727 18.9046 9.45242 18.9046C4.23219 18.9046 -1.55714e-08 14.6724 -1.55714e-08 9.45236C-1.55714e-08 4.23194 4.23219 -6.45098e-08 9.45242 -6.45098e-08C14.6728 -6.45098e-08 18.9046 4.23187 18.9046 9.45236Z" transform="translate(2.54785 2.54761)" fill="#BEBEBE"/>
<path d="M4.76415 9.64115L5.54359 6.70625L7.38892 6.03207L7.84792 4.30724L7.83225 4.26445L6.01578 4.92806L7.32456 -2.66937e-07H3.61282L1.90124 6.43123L0.472195 6.95328L2.00204e-07 8.73147L1.42796 8.20985L0.419202 12.0001H10.2976L10.9309 9.64115H4.76415Z" transform="translate(6.53467 5.56445)" fill="white"/>
</svg>
