<svg width="20" height="24" viewBox="0 0 20 24" fill="none" xmlns="http://www.w3.org/2000/svg">
<path d="M17.0286 1.80968C15.9359 0.543038 13.9605 -1.21693e-09 11.4334 -1.21693e-09H4.09912C3.84909 9.41359e-06 3.60726 0.0907222 3.41711 0.255829C3.22697 0.420937 3.10098 0.649608 3.06179 0.900731L0.00792483 20.5971C-0.052776 20.9855 0.242964 21.3372 0.63007 21.3372H5.15801L6.29517 14.0022L6.25988 14.2319C6.34089 13.7135 6.77694 13.331 7.29329 13.331H9.44495C13.6719 13.331 16.9817 11.5851 17.9485 6.5344C17.9772 6.38503 18.0021 6.23964 18.0235 6.0976C17.9015 6.03188 17.9015 6.03188 18.0235 6.0976C18.3114 4.23082 18.0216 2.96011 17.0286 1.80968Z" fill="#27346A"/>
<path d="M8.02774 5.42512C8.15152 5.36518 8.28691 5.33412 8.42402 5.3342H14.174C14.8549 5.3342 15.4899 5.37926 16.0703 5.47425C16.2327 5.50058 16.3942 5.53202 16.5547 5.56852C16.7822 5.61956 17.007 5.68203 17.2284 5.7557C17.5137 5.8526 17.7794 5.96545 18.0236 6.0976C18.3114 4.2301 18.0216 2.96011 17.0286 1.80968C15.9352 0.543038 13.9605 -1.21693e-09 11.4334 -1.21693e-09H4.09849C3.58206 -1.21693e-09 3.14273 0.382336 3.06179 0.900731L0.00792526 20.5964C-0.0527756 20.9854 0.242965 21.3366 0.629443 21.3366H5.15801L7.51727 6.12216C7.54047 5.97262 7.59904 5.83104 7.68797 5.70962C7.77689 5.5882 7.89349 5.49056 8.02774 5.42512Z" fill="#27346A"/>
<path d="M13.1101 0.436807C12.1433 5.48677 8.8336 7.23344 4.60658 7.23344H2.45429C1.93794 7.23344 1.50182 7.61586 1.42159 8.13433L0.00687944 17.2545C-0.045979 17.5944 0.212509 17.9024 0.550678 17.9024H4.36762C4.58626 17.9023 4.79772 17.823 4.96395 17.6785C5.13018 17.5341 5.24028 17.3341 5.27445 17.1144L5.31162 16.9167L6.03101 12.2801L6.07736 12.0239C6.11153 11.8043 6.22162 11.6043 6.38783 11.4598C6.55404 11.3154 6.76548 11.236 6.98411 11.2359H7.55536C11.2529 11.2359 14.1481 9.70834 14.9941 5.29034C15.3473 3.44405 15.1645 1.90259 14.2303 0.819861C13.947 0.491917 13.5951 0.221076 13.1852 2.53122e-07C13.163 0.142758 13.1389 0.28743 13.1101 0.436807Z" transform="translate(4.83838 6.09766)" fill="#2790C3"/>
<path d="M10.7512 0.353228C10.6004 0.308463 10.4483 0.26883 10.2949 0.234397C10.1344 0.198495 9.97281 0.167272 9.81049 0.140766C9.22951 0.0451423 8.5949 2.17453e-06 7.91339 2.17453e-06H2.16414C2.02693 -0.000314318 1.89144 0.031017 1.76785 0.0916386C1.63346 0.156881 1.51672 0.254456 1.42776 0.375913C1.3388 0.49737 1.2803 0.639048 1.25731 0.78868L0.0352915 8.66812L-8.13735e-08 8.89781C0.0803855 8.37933 0.516428 7.99692 1.03286 7.99692H3.18515C7.4121 7.99692 10.7218 6.25096 11.6886 1.20029C11.7174 1.05091 11.7415 0.906157 11.7637 0.763478C11.5189 0.632045 11.2539 0.518476 10.9685 0.422215C10.8965 0.397937 10.8241 0.374939 10.7513 0.353228" transform="translate(6.26025 5.33398)" fill="#1F264F"/>
</svg>
