<svg width="24" height="16" viewBox="0 0 24 16" fill="none" xmlns="http://www.w3.org/2000/svg">
<rect x="0.5" y="0.5" width="23" height="15" rx="1.5" fill="white" stroke="#2F3B65"/>
<path d="M13.7211 5.939L12.1496 11H11.2991L10.1931 7.542C10.1628 7.458 10.1348 7.35533 10.1091 7.234C10.0951 7.29233 10.0811 7.34717 10.0671 7.3985C10.0531 7.44983 10.038 7.49767 10.0216 7.542L8.90513 11H8.05113L6.48313 5.939H7.27063C7.3523 5.939 7.41997 5.95883 7.47363 5.9985C7.52963 6.03583 7.56697 6.08717 7.58563 6.1525L8.44663 9.18C8.4653 9.25467 8.4828 9.33633 8.49913 9.425C8.5178 9.51133 8.53647 9.60233 8.55513 9.698C8.5738 9.6 8.59363 9.50783 8.61463 9.4215C8.63797 9.33517 8.66247 9.25467 8.68813 9.18L9.68213 6.1525C9.7008 6.09883 9.73697 6.04983 9.79063 6.0055C9.84663 5.96117 9.9143 5.939 9.99363 5.939H10.2701C10.3518 5.939 10.4183 5.95883 10.4696 5.9985C10.521 6.03817 10.5595 6.0895 10.5851 6.1525L11.5756 9.18C11.6246 9.32467 11.669 9.4915 11.7086 9.6805C11.739 9.49617 11.7728 9.32933 11.8101 9.18L12.6711 6.1525C12.6851 6.09417 12.7201 6.044 12.7761 6.002C12.8345 5.96 12.9033 5.939 12.9826 5.939H13.7211ZM17.6776 6.7125H16.1516V11H15.2101V6.7125H13.6841V5.939H17.6776V6.7125Z" fill="#2F3B65"/>
</svg>
